<svg width="64" height="64" xmlns="http://www.w3.org/2000/svg">

 <g>
  <title>background</title>
  <rect fill="none" id="canvas_background" height="402" width="582" y="-1" x="-1"/>
 </g>
 <g>
  <title>Layer 1</title>
  <path fill="#0f5585" id="Fill-131" d="m31.9,54.9c-12.6,0 -22.9,-10.3 -22.9,-22.9c0,-12.6 10.3,-22.9 22.9,-22.9c12.6,0 22.9,10.3 22.9,22.9c0.1,12.6 -10.2,22.9 -22.9,22.9l0,0zm0,-43.4c-11.3,0 -20.4,9.2 -20.4,20.4s9.2,20.4 20.4,20.4s20.4,-9.2 20.4,-20.4s-9.1,-20.4 -20.4,-20.4l0,0z" class="st0"/>
  <polyline fill="#134563" points="39.100006103515625,43.70001220703125 30.600006103515625,35.20001220703125 30.600006103515625,19.70001220703125 33.29998779296875,19.70001220703125 33.29998779296875,34.100006103515625 41,41.79998779296875 39.100006103515625,43.70001220703125 " id="Fill-132" class="st0"/>
 </g>
</svg>