<svg width="441.22491" height="441.22491" xmlns="http://www.w3.org/2000/svg">

 <g>
  <title>background</title>
  <rect fill="none" id="canvas_background" height="402" width="582" y="-1" x="-1"/>
 </g>
 <g>
  <title>Layer 1</title>
  <path fill="none" stroke="#0f5585" stroke-width="29.7159" id="path3263" d="m220.610953,415.866954c-107.834,0 -195.253,-87.419 -195.253,-195.253c0,-107.838 87.419,-195.256 195.253,-195.256c107.838,0 195.256,87.418 195.256,195.256c0,107.834 -87.418,195.253 -195.256,195.253z"/>
  <path fill="none" stroke="#000000" stroke-width="50.7159" id="path3265"/>
  <path stroke-width="0" fill="#0f5585" stroke="#0f5585" id="path3267" d="m197.065582,70.065582l0,32.5c-13.151,0 -72.3125,16.75375 -72.3125,70.46875c0,47.785 42.69225,60.79349 72.28125,65.0625l0.03125,54c-21.605,-6.167 -25.53125,-22.79026 -28.53125,-36.53125l-47.4375,0c2.936,53.741 50.13675,78.73525 75.96875,82.53125l0,33.0625l45.09375,0l0,-32.5625c35.695,-1.898 77.96876,-32.72176 77.96875,-74.96875c0,-48.386 -42.10875,-62.1205 -77.96875,-65.8125l0,-49.5c14.11,1 25.1205,15 26.3125,29.25l46.96875,0c0,-48 -43.671,-73.25 -73.75,-75l0,-32.5l-44.625,0zm0.25,78.71875l0,41.03125c-31.78801,-0.5 -32.406,-35.33825 0,-41.03125zm45.375,97.03125c39.33699,1 43.6935,40.25425 -0.0625,46.53125l0.0625,-46.53125z"/>
  <path fill="#ffffff" id="path3277" d="m240.22995,291.64095l0.044,-46.527"/>
 </g>
</svg>